<svg width="57" height="53" xmlns="http://www.w3.org/2000/svg" fill="none">

 <g>
  <title>Layer 1</title>
  <path id="svg_1" stroke-linejoin="round" stroke-linecap="round" stroke-width="2" stroke="#2B2A2A" d="m24.5,25.3201c8.9746,0 16.25,-3.2739 16.25,-7.3125c0,-4.0386 -7.2754,-7.3125 -16.25,-7.3125c-8.9746,0 -16.25,3.2739 -16.25,7.3125c0,4.0386 7.2754,7.3125 16.25,7.3125z"/>
  <path id="svg_2" stroke-linejoin="round" stroke-linecap="round" stroke-width="2" stroke="#2B2A2A" d="m8.25,18.0076l0,8.125c0,4.0422 7.2719,7.3125 16.25,7.3125c8.9781,0 16.25,-3.2703 16.25,-7.3125l0,-8.125"/>
  <path id="svg_3" stroke-linejoin="round" stroke-linecap="round" stroke-width="2" stroke="#2B2A2A" d="m18,24.7107l0,8.125"/>
  <path id="svg_4" stroke-linejoin="round" stroke-linecap="round" stroke-width="2" stroke="#2B2A2A" d="m40.75,20.5873c7.4141,0.6906 13,3.6359 13,7.1703c0,4.0422 -7.2719,7.3125 -16.25,7.3125c-3.9813,0 -7.6375,-0.65 -10.4609,-1.7063"/>
  <path id="svg_5" stroke-linejoin="round" stroke-linecap="round" stroke-width="2" stroke="#2B2A2A" d="m21.25,33.3029l0,2.5797c0,4.0422 7.2719,7.3125 16.25,7.3125c8.9781,0 16.25,-3.2703 16.25,-7.3125l0,-8.125"/>
  <path id="svg_6" stroke-linejoin="round" stroke-linecap="round" stroke-width="2" stroke="#2B2A2A" d="m44,34.4607l0,8.125"/>
  <path id="svg_7" stroke-linejoin="round" stroke-linecap="round" stroke-width="2" stroke="#2B2A2A" d="m31,24.7107l0,17.875"/>
 </g>
</svg>