<svg width="52" height="53" viewBox="0 0 52 53" fill="none" xmlns="http://www.w3.org/2000/svg">
<path d="M19.5 25.3201C28.4746 25.3201 35.75 22.0462 35.75 18.0076C35.75 13.969 28.4746 10.6951 19.5 10.6951C10.5254 10.6951 3.25 13.969 3.25 18.0076C3.25 22.0462 10.5254 25.3201 19.5 25.3201Z" stroke="#2B2A2A" stroke-width="2" stroke-linecap="round" stroke-linejoin="round"/>
<path d="M3.25 18.0076V26.1326C3.25 30.1748 10.5219 33.4451 19.5 33.4451C28.4781 33.4451 35.75 30.1748 35.75 26.1326V18.0076" stroke="#2B2A2A" stroke-width="2" stroke-linecap="round" stroke-linejoin="round"/>
<path d="M13 24.7107V32.8357" stroke="#2B2A2A" stroke-width="2" stroke-linecap="round" stroke-linejoin="round"/>
<path d="M35.75 20.5873C43.1641 21.2779 48.75 24.2232 48.75 27.7576C48.75 31.7998 41.4781 35.0701 32.5 35.0701C28.5187 35.0701 24.8625 34.4201 22.0391 33.3638" stroke="#2B2A2A" stroke-width="2" stroke-linecap="round" stroke-linejoin="round"/>
<path d="M16.25 33.3029V35.8826C16.25 39.9248 23.5219 43.1951 32.5 43.1951C41.4781 43.1951 48.75 39.9248 48.75 35.8826V27.7576" stroke="#2B2A2A" stroke-width="2" stroke-linecap="round" stroke-linejoin="round"/>
<path d="M39 34.4607V42.5857" stroke="#2B2A2A" stroke-width="2" stroke-linecap="round" stroke-linejoin="round"/>
<path d="M26 24.7107V42.5857" stroke="#2B2A2A" stroke-width="2" stroke-linecap="round" stroke-linejoin="round"/>
</svg>
