<svg width="88" height="88" viewBox="0 0 88 88" fill="none" xmlns="http://www.w3.org/2000/svg">
<path d="M15.5005 67.3749C15.5885 67.7364 15.748 68.0766 15.9696 68.3754C16.1913 68.6743 16.4706 68.9256 16.7911 69.1147C17.1115 69.3038 17.4666 69.4267 17.8353 69.4762C18.2041 69.5257 18.579 69.5008 18.938 69.403C35.3245 64.8657 52.6359 64.8657 69.0224 69.403C69.3813 69.5008 69.7563 69.5257 70.125 69.4762C70.4938 69.4267 70.8489 69.3038 71.1693 69.1147C71.4898 68.9256 71.7691 68.6743 71.9907 68.3754C72.2124 68.0766 72.3719 67.7364 72.4599 67.3749L81.2255 30.1468C81.3459 29.6485 81.3245 29.1264 81.1639 28.6396C81.0033 28.1528 80.7099 27.7205 80.3166 27.3917C79.9234 27.0628 79.4461 26.8504 78.9385 26.7784C78.431 26.7064 77.9134 26.7777 77.4442 26.9843L60.0505 34.7186C59.4203 34.9961 58.7096 35.0302 58.0557 34.8144C57.4018 34.5985 56.851 34.148 56.5099 33.5499L46.4036 15.3311C46.1658 14.9013 45.8172 14.543 45.394 14.2935C44.9709 14.0441 44.4886 13.9125 43.9974 13.9125C43.5061 13.9125 43.0239 14.0441 42.6007 14.2935C42.1776 14.543 41.8289 14.9013 41.5911 15.3311L31.4849 33.5499C31.1437 34.148 30.593 34.5985 29.9391 34.8144C29.2852 35.0302 28.5745 34.9961 27.9443 34.7186L10.5505 26.9843C10.0813 26.7777 9.56376 26.7064 9.05621 26.7784C8.54866 26.8504 8.07133 27.0628 7.67811 27.3917C7.28488 27.7205 6.99141 28.1528 6.83081 28.6396C6.67022 29.1264 6.64889 29.6485 6.76925 30.1468L15.5005 67.3749Z" fill="#FFDE6E" stroke="black" stroke-width="2" stroke-linecap="round" stroke-linejoin="round"/>
<path d="M33.0005 55.5845C40.3125 54.7939 47.6885 54.7939 55.0005 55.5845" stroke="black" stroke-width="2" stroke-linecap="round" stroke-linejoin="round"/>
</svg>
