<svg width="45" height="46" viewBox="0 0 45 46" fill="none" xmlns="http://www.w3.org/2000/svg">
<path d="M37.9688 15.0076H7.03125C6.2546 15.0076 5.625 15.6372 5.625 16.4138V22.0388C5.625 22.8155 6.2546 23.4451 7.03125 23.4451H37.9688C38.7454 23.4451 39.375 22.8155 39.375 22.0388V16.4138C39.375 15.6372 38.7454 15.0076 37.9688 15.0076Z" stroke="#2B2A2A" stroke-width="2" stroke-linecap="round" stroke-linejoin="round"/>
<path d="M36.5625 23.4451V36.1013C36.5625 36.4743 36.4143 36.832 36.1506 37.0957C35.8869 37.3594 35.5292 37.5076 35.1562 37.5076H9.84375C9.47079 37.5076 9.1131 37.3594 8.84938 37.0957C8.58566 36.832 8.4375 36.4743 8.4375 36.1013V23.4451" stroke="#2B2A2A" stroke-width="2" stroke-linecap="round" stroke-linejoin="round"/>
<path d="M22.5 15.0076V37.5076" stroke="#2B2A2A" stroke-width="2" stroke-linecap="round" stroke-linejoin="round"/>
<path d="M30.4629 13.0212C28.459 15.0076 22.5 15.0076 22.5 15.0076C22.5 15.0076 22.5 9.04858 24.4863 7.04467C25.2789 6.25213 26.3538 5.80688 27.4746 5.80688C28.5954 5.80688 29.6704 6.25213 30.4629 7.04467C31.2554 7.83721 31.7007 8.91213 31.7007 10.033C31.7007 11.1538 31.2554 12.2287 30.4629 13.0212Z" stroke="#2B2A2A" stroke-width="2" stroke-linecap="round" stroke-linejoin="round"/>
<path d="M14.5366 13.0212C16.5405 15.0076 22.4995 15.0076 22.4995 15.0076C22.4995 15.0076 22.4995 9.04858 20.5132 7.04467C19.7206 6.25213 18.6457 5.80688 17.5249 5.80688C16.4041 5.80688 15.3292 6.25213 14.5366 7.04467C13.7441 7.83721 13.2988 8.91213 13.2988 10.033C13.2988 11.1538 13.7441 12.2287 14.5366 13.0212Z" stroke="#2B2A2A" stroke-width="2" stroke-linecap="round" stroke-linejoin="round"/>
</svg>
