<svg width="52" height="52" viewBox="0 0 52 52" fill="none" xmlns="http://www.w3.org/2000/svg">
<path d="M41.3438 19.2007H10.4062C9.6296 19.2007 9 19.8303 9 20.6069V26.2319C9 27.0086 9.6296 27.6382 10.4062 27.6382H41.3438C42.1204 27.6382 42.75 27.0086 42.75 26.2319V20.6069C42.75 19.8303 42.1204 19.2007 41.3438 19.2007Z" stroke="#2B2A2A" stroke-width="2" stroke-linecap="round" stroke-linejoin="round"/>
<path d="M39.9375 27.6382V40.2944C39.9375 40.6674 39.7893 41.0251 39.5256 41.2888C39.2619 41.5525 38.9042 41.7007 38.5312 41.7007H13.2188C12.8458 41.7007 12.4881 41.5525 12.2244 41.2888C11.9607 41.0251 11.8125 40.6674 11.8125 40.2944V27.6382" stroke="#2B2A2A" stroke-width="2" stroke-linecap="round" stroke-linejoin="round"/>
<path d="M25.875 19.2007V41.7007" stroke="#2B2A2A" stroke-width="2" stroke-linecap="round" stroke-linejoin="round"/>
<path d="M33.8379 17.2143C31.834 19.2007 25.875 19.2007 25.875 19.2007C25.875 19.2007 25.875 13.2417 27.8613 11.2378C28.6539 10.4452 29.7288 10 30.8496 10C31.9704 10 33.0454 10.4452 33.8379 11.2378C34.6304 12.0303 35.0757 13.1052 35.0757 14.2261C35.0757 15.3469 34.6304 16.4218 33.8379 17.2143Z" stroke="#2B2A2A" stroke-width="2" stroke-linecap="round" stroke-linejoin="round"/>
<path d="M17.9116 17.2143C19.9155 19.2007 25.8745 19.2007 25.8745 19.2007C25.8745 19.2007 25.8745 13.2417 23.8882 11.2378C23.0956 10.4452 22.0207 10 20.8999 10C19.7791 10 18.7042 10.4452 17.9116 11.2378C17.1191 12.0303 16.6738 13.1052 16.6738 14.2261C16.6738 15.3469 17.1191 16.4218 17.9116 17.2143Z" stroke="#2B2A2A" stroke-width="2" stroke-linecap="round" stroke-linejoin="round"/>
</svg>
