<svg width="40" height="40" viewBox="0 0 40 40" fill="none" xmlns="http://www.w3.org/2000/svg">
<rect width="40" height="40" rx="8" fill="url(#paint0_linear_157_218)"/>
<path d="M15.3345 20C15.3345 17.4228 17.4232 15.333 20.0006 15.333C22.5779 15.333 24.6678 17.4228 24.6678 20C24.6678 22.5772 22.5779 24.667 20.0006 24.667C17.4232 24.667 15.3345 22.5772 15.3345 20ZM12.8114 20C12.8114 23.9704 16.03 27.1888 20.0006 27.1888C23.9711 27.1888 27.1897 23.9704 27.1897 20C27.1897 16.0296 23.9711 12.8112 20.0006 12.8112C16.03 12.8112 12.8114 16.0296 12.8114 20ZM25.7942 12.5261C25.7941 12.8584 25.8925 13.1833 26.077 13.4596C26.2615 13.7359 26.5238 13.9514 26.8307 14.0787C27.1377 14.2059 27.4755 14.2393 27.8014 14.1746C28.1273 14.11 28.4267 13.9501 28.6618 13.7152C28.8969 13.4804 29.057 13.1811 29.1219 12.8552C29.1869 12.5293 29.1538 12.1915 29.0267 11.8845C28.8997 11.5775 28.6845 11.315 28.4082 11.1303C28.132 10.9456 27.8072 10.8469 27.475 10.8468H27.4743C27.0289 10.847 26.6018 11.024 26.2868 11.3389C25.9718 11.6537 25.7946 12.0807 25.7942 12.5261ZM14.3443 31.3957C12.9793 31.3335 12.2374 31.1061 11.7444 30.9141C11.0907 30.6596 10.6243 30.3565 10.134 29.8669C9.64362 29.3772 9.34009 28.9113 9.08673 28.2576C8.89453 27.7648 8.66716 27.0227 8.60511 25.6578C8.53724 24.1821 8.52369 23.7388 8.52369 20.0001C8.52369 16.2614 8.53836 15.8194 8.60511 14.3424C8.66727 12.9775 8.89632 12.2368 9.08673 11.7426C9.34121 11.0889 9.64429 10.6226 10.134 10.1322C10.6237 9.6419 11.0896 9.33838 11.7444 9.08504C12.2372 8.89285 12.9793 8.66549 14.3443 8.60344C15.8201 8.53557 16.2634 8.52202 20.0006 8.52202C23.7377 8.52202 24.1815 8.53669 25.6585 8.60344C27.0235 8.6656 27.7642 8.89464 28.2584 9.08504C28.9121 9.33838 29.3785 9.64258 29.8688 10.1322C30.3592 10.6219 30.6616 11.0889 30.9161 11.7426C31.1083 12.2354 31.3356 12.9775 31.3977 14.3424C31.4656 15.8194 31.4791 16.2614 31.4791 20.0001C31.4791 23.7388 31.4656 24.1808 31.3977 25.6578C31.3355 27.0227 31.107 27.7646 30.9161 28.2576C30.6616 28.9113 30.3585 29.3776 29.8688 29.8669C29.3791 30.3561 28.9121 30.6596 28.2584 30.9141C27.7656 31.1063 27.0235 31.3336 25.6585 31.3957C24.1827 31.4635 23.7394 31.4771 20.0006 31.4771C16.2617 31.4771 15.8197 31.4635 14.3443 31.3957ZM14.2284 6.08478C12.738 6.15266 11.7195 6.38898 10.8301 6.73506C9.90896 7.09245 9.12918 7.57192 8.34997 8.34987C7.57075 9.12782 7.09249 9.9088 6.73509 10.8299C6.38899 11.7198 6.15266 12.7377 6.08479 14.2281C6.01579 15.7208 6 16.198 6 20C6 23.802 6.01579 24.2792 6.08479 25.7719C6.15266 27.2624 6.38899 28.2802 6.73509 29.1701C7.09249 30.0906 7.57086 30.8725 8.34997 31.6501C9.12907 32.4277 9.90896 32.9065 10.8301 33.2649C11.7212 33.611 12.738 33.8473 14.2284 33.9152C15.722 33.9831 16.1985 34 20.0006 34C23.8027 34 24.2799 33.9842 25.7727 33.9152C27.2633 33.8473 28.2811 33.611 29.171 33.2649C30.0916 32.9065 30.8719 32.4281 31.6512 31.6501C32.4304 30.8722 32.9076 30.0906 33.266 29.1701C33.6121 28.2802 33.8496 27.2623 33.9163 25.7719C33.9842 24.2781 34 23.802 34 20C34 16.198 33.9842 15.7208 33.9163 14.2281C33.8485 12.7376 33.6121 11.7193 33.266 10.8299C32.9076 9.90936 32.4291 9.12906 31.6512 8.34987C30.8732 7.57069 30.0916 7.09245 29.1722 6.73506C28.2811 6.38898 27.2632 6.15154 25.7738 6.08478C24.281 6.01691 23.8038 6 20.0017 6C16.1996 6 15.722 6.01579 14.2284 6.08478Z" fill="white"/>
<defs>
<linearGradient id="paint0_linear_157_218" x1="39.2312" y1="40" x2="-0.768799" y2="-1.07669e-06" gradientUnits="userSpaceOnUse">
<stop stop-color="#FBE18A"/>
<stop offset="0.21" stop-color="#FCBB45"/>
<stop offset="0.38" stop-color="#F75274"/>
<stop offset="0.52" stop-color="#D53692"/>
<stop offset="0.74" stop-color="#8F39CE"/>
<stop offset="1" stop-color="#5B4FE9"/>
</linearGradient>
</defs>
</svg>
