<svg width="40" height="40" viewBox="0 0 40 40" fill="none" xmlns="http://www.w3.org/2000/svg">
<rect width="40" height="40" rx="8" fill="#0088CC"/>
<path d="M10.6005 18.882C10.6005 18.882 19.7409 15.0771 22.9109 13.7372C24.1262 13.2013 28.2472 11.4863 28.2472 11.4863C28.2472 11.4863 30.1493 10.7361 29.9908 12.5582C29.9379 13.3085 29.5153 15.9345 29.0926 18.7749C28.4586 22.7943 27.7717 27.1888 27.7717 27.1888C27.7717 27.1888 27.666 28.4214 26.7679 28.6358C25.8697 28.8502 24.3903 27.8856 24.1262 27.6711C23.9148 27.5104 20.1636 25.0987 18.7899 23.9197C18.42 23.5982 17.9974 22.9551 18.8427 22.2048C20.7447 20.4362 23.0166 18.239 24.3903 16.8456C25.0243 16.2025 25.6583 14.7019 23.0166 16.524C19.2654 19.15 15.567 21.6153 15.567 21.6153C15.567 21.6153 14.7216 22.1511 13.1366 21.6688C11.5515 21.1865 9.70229 20.5434 9.70229 20.5434C9.70229 20.5434 8.43434 19.7395 10.6005 18.882Z" fill="white"/>
</svg>
