<svg width="77" height="77" viewBox="0 0 77 77" fill="none" xmlns="http://www.w3.org/2000/svg">
<path d="M38.298 67.0222C54.1617 67.0222 67.0217 54.1622 67.0217 38.2985C67.0217 22.4348 54.1617 9.57471 38.298 9.57471C22.4343 9.57471 9.57422 22.4348 9.57422 38.2985C9.57422 54.1622 22.4343 67.0222 38.298 67.0222Z" stroke="#2B2A2A" stroke-width="2" stroke-linecap="round" stroke-linejoin="round"/>
<path d="M38.2983 47.873C44.9082 47.873 50.2665 42.5146 50.2665 35.9048C50.2665 29.2949 44.9082 23.9365 38.2983 23.9365C31.6884 23.9365 26.3301 29.2949 26.3301 35.9048C26.3301 42.5146 31.6884 47.873 38.2983 47.873Z" stroke="#2B2A2A" stroke-width="2" stroke-linecap="round" stroke-linejoin="round"/>
<path d="M19.0898 59.6611C20.8908 56.1138 23.6388 53.1345 27.0294 51.0534C30.4199 48.9722 34.3205 47.8706 38.2989 47.8706C42.2772 47.8706 46.1778 48.9722 49.5683 51.0534C52.9589 53.1345 55.7069 56.1138 57.5079 59.6611" stroke="#2B2A2A" stroke-width="2" stroke-linecap="round" stroke-linejoin="round"/>
</svg>
