<svg width="52" height="52" viewBox="0 0 52 52" fill="none" xmlns="http://www.w3.org/2000/svg">
<path d="M26.8461 38.672L36.5377 44.7495C37.7876 45.5282 39.3259 44.3697 38.9606 42.9453L36.1531 32.0437C36.0772 31.7415 36.0892 31.4243 36.1879 31.1286C36.2866 30.8329 36.4678 30.5708 36.7107 30.3724L45.4024 23.2123C46.5369 22.2817 45.96 20.4015 44.4794 20.3065L33.1341 19.5848C32.8245 19.567 32.5269 19.4605 32.2776 19.2784C32.0283 19.0963 31.8382 18.8464 31.7303 18.5592L27.4999 8.0375C27.3879 7.73344 27.1839 7.47078 26.9156 7.28517C26.6472 7.09956 26.3276 7 26 7C25.6724 7 25.3528 7.09956 25.0844 7.28517C24.8161 7.47078 24.6121 7.73344 24.5001 8.0375L20.2697 18.5592C20.1618 18.8464 19.9717 19.0963 19.7224 19.2784C19.4731 19.4605 19.1755 19.567 18.8659 19.5848L7.52061 20.3065C6.03995 20.4015 5.46307 22.2817 6.5976 23.2123L15.2893 30.3724C15.5322 30.5708 15.7134 30.8329 15.8121 31.1286C15.9108 31.4243 15.9228 31.7415 15.8469 32.0437L13.251 42.1476C12.8087 43.8569 14.6547 45.2433 16.1354 44.3127L25.1539 38.672C25.4068 38.5132 25.7003 38.4288 26 38.4288C26.2997 38.4288 26.5932 38.5132 26.8461 38.672Z" stroke="#2B2A2A" stroke-width="2" stroke-linecap="round" stroke-linejoin="round"/>
</svg>
