<svg width="42" height="41" viewBox="0 0 42 41" fill="none" xmlns="http://www.w3.org/2000/svg">
<path d="M21.8461 33.6171L31.5377 39.6946C32.7876 40.4733 34.3259 39.3148 33.9606 37.8903L31.1531 26.9888C31.0772 26.6866 31.0892 26.3694 31.1879 26.0737C31.2866 25.778 31.4678 25.5159 31.7107 25.3175L40.4024 18.1574C41.5369 17.2268 40.96 15.3465 39.4794 15.2516L28.1341 14.5299C27.8245 14.5121 27.5269 14.4056 27.2776 14.2235C27.0283 14.0413 26.8382 13.7914 26.7303 13.5043L22.4999 2.98257C22.3879 2.67851 22.1839 2.41584 21.9156 2.23024C21.6472 2.04463 21.3276 1.94507 21 1.94507C20.6724 1.94507 20.3528 2.04463 20.0844 2.23024C19.8161 2.41584 19.6121 2.67851 19.5001 2.98257L15.2697 13.5043C15.1618 13.7914 14.9717 14.0413 14.7224 14.2235C14.4731 14.4056 14.1755 14.5121 13.8659 14.5299L2.52061 15.2516C1.03995 15.3465 0.463073 17.2268 1.5976 18.1574L10.2893 25.3175C10.5322 25.5159 10.7134 25.778 10.8121 26.0737C10.9108 26.3694 10.9228 26.6866 10.8469 26.9888L8.25095 37.0927C7.80868 38.802 9.65469 40.1884 11.1354 39.2578L20.1539 33.6171C20.4068 33.4582 20.7003 33.3739 21 33.3739C21.2997 33.3739 21.5932 33.4582 21.8461 33.6171Z" stroke="#2B2A2A" stroke-width="2" stroke-linecap="round" stroke-linejoin="round"/>
</svg>
