<svg width="40" height="40" viewBox="0 0 40 40" fill="none" xmlns="http://www.w3.org/2000/svg">
<rect width="40" height="40" rx="8" fill="#6E3B9A"/>
<path d="M12.9575 31.1102C12.9575 30.6447 12.9575 30.1792 12.9575 29.7137C12.9608 29.6947 12.9601 29.6752 12.9555 29.6564C12.9509 29.6376 12.9425 29.62 12.9307 29.6046C12.919 29.5892 12.9041 29.5764 12.8872 29.5669C12.8702 29.5574 12.8514 29.5514 12.8321 29.5494C11.6677 29.2216 10.5929 28.6377 9.68794 27.8412C9.02857 27.2469 8.47957 26.5425 8.06592 25.7601C7.48289 24.63 7.09488 23.4112 6.91797 22.1541C6.69877 20.5773 6.62264 18.9841 6.6905 17.3938C6.70538 16.6524 6.74365 15.9194 6.82868 15.1779C6.96429 13.769 7.32299 12.39 7.8916 11.0917C8.59373 9.49529 9.86748 8.21297 11.4673 7.49196C12.5571 6.99784 13.7035 6.63711 14.8814 6.41774C16.0364 6.20096 17.2059 6.06791 18.3805 6.01964C19.4393 5.98254 20.4993 5.99801 21.5565 6.06598C23.0697 6.12926 24.5691 6.37758 26.0208 6.8053C27.0971 7.11271 28.121 7.57773 29.0586 8.18494C29.9722 8.80633 30.7111 9.6479 31.2057 10.6304C31.7873 11.7779 32.1826 13.0091 32.3771 14.2785C32.5035 15.0322 32.5865 15.7924 32.6258 16.5555C32.6811 17.5012 32.6747 18.4512 32.6386 19.3927C32.6024 20.3342 32.5216 21.2484 32.4047 22.1709C32.2569 23.5557 31.8274 24.8963 31.142 26.1119C30.2498 27.6496 28.8207 28.8109 27.1241 29.3767C25.964 29.7792 24.7662 30.0657 23.5485 30.2319C22.6577 30.354 21.7649 30.4425 20.8678 30.4783C20.1811 30.5099 19.4945 30.5015 18.8078 30.4909C18.4188 30.4909 18.0319 30.453 17.645 30.4193C17.607 30.4122 17.5677 30.4164 17.5322 30.4314C17.4966 30.4464 17.4663 30.4715 17.4451 30.5036C16.6628 31.4346 15.8508 32.3403 15.0323 33.2418C14.8832 33.4063 14.7106 33.5482 14.52 33.6631C14.3949 33.7444 14.2522 33.7955 14.1034 33.8121C13.9547 33.8287 13.8041 33.8105 13.6639 33.7588C13.5236 33.7071 13.3975 33.6235 13.2959 33.5147C13.1942 33.4058 13.1198 33.2748 13.0787 33.1323C12.9977 32.8789 12.9575 32.6145 12.9596 32.3487C12.9575 31.9317 12.9575 31.5209 12.9575 31.1102ZM13.9035 32.8774L14.0034 32.7847L15.7785 30.8322C16.4616 30.0809 17.144 29.3289 17.8257 28.5763C17.8592 28.5304 17.9044 28.4941 17.9567 28.4711C18.009 28.4482 18.0665 28.4394 18.1233 28.4457C18.355 28.4689 18.5867 28.4773 18.8206 28.4794C19.6284 28.4794 20.4362 28.4794 21.244 28.4225C21.9775 28.3657 22.7087 28.2772 23.4358 28.1634C24.2186 28.0284 24.9935 27.8519 25.7572 27.6348C27.4579 27.1819 28.7738 26.213 29.6007 24.6438C30.0889 23.679 30.3951 22.6339 30.5042 21.5601C30.6334 20.548 30.7108 19.53 30.7359 18.5102C30.7736 17.229 30.6853 15.9472 30.4723 14.683C30.3246 13.767 30.0589 12.8736 29.6815 12.0248C29.2011 10.9716 28.5208 10.0996 27.4728 9.53931C25.8656 8.67993 24.1267 8.29658 22.3346 8.10069C21.8265 8.04593 21.3184 8.01644 20.8082 7.99748C19.7636 7.94412 18.7167 7.94974 17.6726 8.01433C16.9218 8.06954 16.175 8.16942 15.4362 8.31343C14.3498 8.50965 13.2988 8.86457 12.3176 9.36659C11.7488 9.65138 11.2327 10.0295 10.7913 10.4851C10.0758 11.2773 9.55106 12.22 9.2564 13.2422C8.90683 14.4327 8.71601 15.6635 8.6888 16.903C8.6204 18.1426 8.63602 19.3853 8.73556 20.6228C8.7975 21.3592 8.92194 22.0892 9.10759 22.805C9.38379 23.9203 9.91962 24.9562 10.6722 25.8296C11.4847 26.7208 12.5348 27.3662 13.7015 27.6916C13.8482 27.7359 13.9141 27.7864 13.9141 27.9507C13.9014 28.5573 13.9141 29.164 13.9141 29.7706L13.9035 32.8774Z" fill="white"/>
<path d="M12.4157 14.064C12.4008 13.6027 12.6538 13.2678 12.9599 12.9666C13.3637 12.5834 13.8085 12.2451 14.2865 11.9577C14.5044 11.8245 14.7636 11.7738 15.0163 11.8148C15.269 11.8558 15.4982 11.9858 15.6619 12.181C16.2402 12.7833 16.7578 13.4401 17.2074 14.142C17.43 14.4577 17.5981 14.8079 17.7048 15.1783C17.7475 15.3228 17.7502 15.476 17.7128 15.622C17.6755 15.7679 17.5993 15.9013 17.4922 16.0082C17.247 16.2467 16.9856 16.4684 16.7099 16.6717C16.571 16.7814 16.4677 16.9291 16.4129 17.0965C16.3581 17.2639 16.3542 17.4436 16.4017 17.6132C16.5719 18.4095 16.9577 19.145 17.5177 19.7406C18.1982 20.5637 19.075 21.2058 20.0687 21.6089C20.3129 21.7333 20.5927 21.7712 20.8617 21.7163C21.009 21.6765 21.1399 21.5918 21.2358 21.4741C21.3846 21.2866 21.5462 21.1055 21.6801 20.9054C21.8538 20.6558 22.1191 20.4833 22.4193 20.4246C22.7195 20.366 23.031 20.4259 23.2873 20.5915C24.0079 21.0058 24.6882 21.4853 25.3196 22.0238C25.4684 22.1502 25.6236 22.2724 25.7724 22.4009C25.9485 22.5339 26.0756 22.7205 26.1344 22.9321C26.1931 23.1436 26.1802 23.3684 26.0976 23.572C25.9663 23.9143 25.7749 24.2309 25.5322 24.5072C25.2306 24.9225 24.8464 25.2723 24.4033 25.5351C24.1915 25.6583 23.9535 25.7307 23.7084 25.7464C23.4633 25.7622 23.2179 25.7208 22.9918 25.6257C21.2718 24.9395 19.6647 24.0032 18.2235 22.8474C16.8139 21.6976 15.582 20.3493 14.5671 18.8454C13.7131 17.6004 13.0337 16.2463 12.5475 14.8202C12.4957 14.6477 12.4532 14.4726 12.42 14.2957C12.4105 14.2188 12.4091 14.1412 12.4157 14.064Z" fill="white"/>
<path d="M19.7553 11.8224C21.1943 11.8488 22.5784 12.3747 23.6661 13.3086C24.7539 14.2424 25.4764 15.5249 25.7076 16.9324C25.8008 17.4441 25.8505 17.9627 25.8565 18.4826C25.8565 18.6048 25.8246 18.6933 25.6928 18.7059C25.561 18.7185 25.527 18.6069 25.527 18.4953C25.5467 17.4435 25.3288 16.4007 24.8892 15.4432C24.519 14.6564 23.9706 13.9649 23.2866 13.4224C22.6027 12.8799 21.8016 12.501 20.9458 12.3153C20.4933 12.2115 20.0305 12.1578 19.5661 12.1552C19.5209 12.156 19.4758 12.1503 19.4322 12.1384C19.395 12.128 19.3634 12.1038 19.344 12.0708C19.3246 12.0378 19.3188 11.9986 19.328 11.9615C19.3283 11.9438 19.3321 11.9265 19.3392 11.9103C19.3463 11.8942 19.3566 11.8796 19.3695 11.8675C19.3823 11.8553 19.3975 11.8458 19.4141 11.8395C19.4307 11.8332 19.4484 11.8303 19.4662 11.8309C19.5618 11.8182 19.6596 11.8224 19.7553 11.8224Z" fill="white"/>
<path d="M23.8589 17.5349C23.8518 16.9498 23.7063 16.3744 23.4342 15.855C23.1621 15.3356 22.771 14.8865 22.2921 14.5439C21.7333 14.155 21.0836 13.9136 20.4044 13.8425C20.2896 13.8278 20.1748 13.8215 20.0579 13.8088C19.941 13.7962 19.8708 13.7478 19.8814 13.6298C19.8921 13.5118 19.9665 13.4697 20.094 13.4781C21.9775 13.5919 23.5804 14.6472 24.0736 16.6124C24.1638 16.9913 24.2088 17.3794 24.2075 17.7687C24.2075 17.8045 24.2075 17.8403 24.2075 17.874C24.2075 17.9794 24.1395 18.0489 24.0353 18.0468C24.0122 18.046 23.9895 18.0406 23.9686 18.0308C23.9477 18.0211 23.929 18.0072 23.9137 17.99C23.8984 17.9729 23.8867 17.9528 23.8795 17.9311C23.8723 17.9093 23.8696 17.8863 23.8716 17.8635C23.8546 17.7645 23.8589 17.6634 23.8589 17.5349Z" fill="white"/>
<path d="M20.5593 15.1888C21.5924 15.2583 22.3131 15.7596 22.5108 16.8486C22.5348 16.9881 22.5518 17.1287 22.5618 17.2699C22.5618 17.3836 22.5363 17.4805 22.4109 17.4805C22.2855 17.4805 22.2429 17.3962 22.2387 17.2699C22.2375 16.8524 22.1077 16.4453 21.8667 16.1029C21.6133 15.7929 21.2497 15.5908 20.8505 15.5384C20.7613 15.5219 20.6711 15.5107 20.5805 15.5047C20.4317 15.5047 20.3488 15.431 20.368 15.3173C20.3871 15.2035 20.4764 15.1825 20.5593 15.1888Z" fill="white"/>
</svg>
